Russolo-24ptExtraLight.ufo
<glyph name="exclam" format="2">
  <advance width="470"/>
  <unicode hex="0021"/>
  <note>
exclam
</note>
  <outline>
    <contour>
      <point x="227" y="324" type="curve"/>
      <point x="243" y="324" type="line"/>
      <point x="243" y="786"/>
      <point x="296" y="1088"/>
      <point x="296" y="1230" type="curve" smooth="yes"/>
      <point x="296" y="1288"/>
      <point x="254" y="1344"/>
      <point x="246" y="1462" type="curve"/>
      <point x="224" y="1462" type="line"/>
      <point x="216" y="1344"/>
      <point x="174" y="1288"/>
      <point x="174" y="1230" type="curve" smooth="yes"/>
      <point x="174" y="1088"/>
      <point x="227" y="786"/>
    </contour>
    <contour>
      <point x="235" y="-14" type="curve" smooth="yes"/>
      <point x="267" y="-14"/>
      <point x="291" y="10"/>
      <point x="291" y="43" type="curve" smooth="yes"/>
      <point x="291" y="76"/>
      <point x="266" y="98"/>
      <point x="235" y="98" type="curve" smooth="yes"/>
      <point x="204" y="98"/>
      <point x="179" y="76"/>
      <point x="179" y="43" type="curve" smooth="yes"/>
      <point x="179" y="10"/>
      <point x="203" y="-14"/>
    </contour>
  </outline>
</glyph>
<glyph name="parenleft" format="2">
  <advance width="515"/>
  <unicode hex="0028"/>
  <note>
parenleft
</note>
  <outline>
    <contour>
      <point x="423" y="-395" type="curve"/>
      <point x="440" y="-370" type="line"/>
      <point x="309" y="-171"/>
      <point x="165" y="203"/>
      <point x="165" y="550" type="curve" smooth="yes"/>
      <point x="165" y="901"/>
      <point x="313" y="1298"/>
      <point x="444" y="1483" type="curve"/>
      <point x="421" y="1503" type="line"/>
      <point x="189" y="1143"/>
      <point x="99" y="887"/>
      <point x="99" y="550" type="curve" smooth="yes"/>
      <point x="99" y="207"/>
      <point x="192" y="-65"/>
    </contour>
  </outline>
</glyph>
<glyph name="comma" format="2">
  <advance width="425"/>
  <unicode hex="002C"/>
  <note>
comma
</note>
  <outline>
    <contour>
      <point x="140" y="-128" type="curve"/>
      <point x="193" y="-128" type="line"/>
      <point x="239" y="-38"/>
      <point x="269" y="47"/>
      <point x="292" y="131" type="curve"/>
      <point x="211" y="131" type="line"/>
      <point x="182" y="62"/>
      <point x="151" y="-65"/>
    </contour>
  </outline>
</glyph>
<glyph name="zero" format="2">
  <advance width="1200"/>
  <unicode hex="0030"/>
  <note>
zero
</note>
  <anchor x="600" y="716" name="center"/>
  <outline>
    <contour>
      <point x="600" y="-24" type="curve" smooth="yes"/>
      <point x="911" y="-24"/>
      <point x="1112" y="267"/>
      <point x="1112" y="716" type="curve" smooth="yes"/>
      <point x="1112" y="1165"/>
      <point x="911" y="1455"/>
      <point x="600" y="1455" type="curve" smooth="yes"/>
      <point x="289" y="1455"/>
      <point x="88" y="1165"/>
      <point x="88" y="716" type="curve" smooth="yes"/>
      <point x="88" y="267"/>
      <point x="289" y="-24"/>
    </contour>
    <contour>
      <point x="600" y="4" type="curve" smooth="yes"/>
      <point x="329" y="4"/>
      <point x="153" y="284"/>
      <point x="153" y="716" type="curve" smooth="yes"/>
      <point x="153" y="1148"/>
      <point x="329" y="1427"/>
      <point x="600" y="1427" type="curve" smooth="yes"/>
      <point x="871" y="1427"/>
      <point x="1047" y="1148"/>
      <point x="1047" y="716" type="curve" smooth="yes"/>
      <point x="1047" y="284"/>
      <point x="871" y="4"/>
    </contour>
  </outline>
</glyph>
<glyph name="four" format="2">
  <advance width="903"/>
  <unicode hex="0034"/>
  <note>
four
</note>
  <outline>
    <contour>
      <point x="684" y="0" type="line"/>
      <point x="704" y="0" type="line"/>
      <point x="704" y="438" type="line"/>
      <point x="659" y="393" type="line"/>
      <point x="872" y="393" type="line"/>
      <point x="872" y="459" type="line"/>
      <point x="659" y="459" type="line"/>
      <point x="704" y="414" type="line"/>
      <point x="704" y="909" type="line"/>
      <point x="684" y="909" type="line"/>
      <point x="684" y="414" type="line"/>
      <point x="729" y="459" type="line"/>
      <point x="92" y="459" type="line"/>
      <point x="109" y="438" type="line"/>
      <point x="284" y="704"/>
      <point x="480" y="1055"/>
      <point x="621" y="1439" type="curve"/>
      <point x="589" y="1439" type="line"/>
      <point x="429" y="1026"/>
      <point x="223" y="669"/>
      <point x="25" y="393" type="curve"/>
      <point x="729" y="393" type="line"/>
      <point x="684" y="438" type="line"/>
    </contour>
  </outline>
</glyph>
<glyph name="R" format="2">
  <advance width="1030"/>
  <unicode hex="0052"/>
  <note>
R
</note>
  <anchor x="515" y="0" name="bottom"/>
  <anchor x="515" y="1430" name="top"/>
  <outline>
    <contour>
      <point x="175" y="0" type="line"/>
      <point x="235" y="0" type="line"/>
      <point x="235" y="692" type="line"/>
      <point x="190" y="687" type="line"/>
      <point x="564" y="687" type="line"/>
      <point x="579" y="687" type="line"/>
      <point x="724" y="728"/>
      <point x="876" y="802"/>
      <point x="876" y="1078" type="curve" smooth="yes"/>
      <point x="876" y="1334"/>
      <point x="660" y="1430"/>
      <point x="430" y="1430" type="curve" smooth="yes"/>
      <point x="175" y="1430" type="line"/>
    </contour>
    <contour>
      <point x="190" y="713" type="line"/>
      <point x="235" y="705" type="line"/>
      <point x="235" y="1419" type="line"/>
      <point x="190" y="1404" type="line"/>
      <point x="392" y="1404" type="line" smooth="yes"/>
      <point x="642" y="1404"/>
      <point x="811" y="1327"/>
      <point x="811" y="1078" type="curve" smooth="yes"/>
      <point x="811" y="816"/>
      <point x="650" y="713"/>
      <point x="432" y="713" type="curve" smooth="yes"/>
    </contour>
    <contour>
      <point x="454" y="687" type="line"/>
      <point x="501" y="687"/>
      <point x="588" y="678"/>
      <point x="642" y="645" type="curve" smooth="yes"/>
      <point x="723" y="594"/>
      <point x="747" y="568"/>
      <point x="810" y="251" type="curve" smooth="yes"/>
      <point x="810" y="249"/>
      <point x="853" y="34"/>
      <point x="861" y="0" type="curve"/>
      <point x="929" y="0" type="line"/>
      <point x="910" y="83"/>
      <point x="884" y="197"/>
      <point x="860" y="321" type="curve" smooth="yes"/>
      <point x="832" y="463"/>
      <point x="808" y="570"/>
      <point x="744" y="638" type="curve" smooth="yes"/>
      <point x="695" y="690"/>
      <point x="644" y="696"/>
      <point x="620" y="703" type="curve"/>
    </contour>
  </outline>
</glyph>
<glyph name="U" format="2">
  <advance width="1405"/>
  <unicode hex="0055"/>
  <note>
U
</note>
  <anchor x="703" y="0" name="bottom"/>
  <anchor x="837" y="0" name="ogonek"/>
  <anchor x="703" y="1430" name="top"/>
  <anchor x="1344" y="1430" name="topright"/>
  <outline>
    <contour>
      <point x="703" y="-24" type="curve" smooth="yes"/>
      <point x="1011" y="-24"/>
      <point x="1259" y="243"/>
      <point x="1259" y="581" type="curve" smooth="yes"/>
      <point x="1259" y="1430" type="line"/>
      <point x="1234" y="1430" type="line"/>
      <point x="1234" y="559" type="line" smooth="yes"/>
      <point x="1234" y="236"/>
      <point x="950" y="2"/>
      <point x="701" y="2" type="curve" smooth="yes"/>
      <point x="452" y="2"/>
      <point x="208" y="236"/>
      <point x="208" y="559" type="curve" smooth="yes"/>
      <point x="208" y="1430" type="line"/>
      <point x="148" y="1430" type="line"/>
      <point x="148" y="551" type="line" smooth="yes"/>
      <point x="148" y="185"/>
      <point x="431" y="-24"/>
    </contour>
  </outline>
</glyph>
<glyph name="X" format="2">
  <advance width="1104"/>
  <unicode hex="0058"/>
  <note>
X
</note>
  <anchor x="553" y="0" name="bottom"/>
  <anchor x="553" y="1430" name="top"/>
  <outline>
    <contour>
      <point x="949" y="0" type="line"/>
      <point x="1028" y="0" type="line"/>
      <point x="162" y="1430" type="line"/>
      <point x="83" y="1430" type="line"/>
    </contour>
    <contour>
      <point x="83" y="0" type="line"/>
      <point x="112" y="0" type="line"/>
      <point x="549" y="722" type="line"/>
      <point x="534" y="745" type="line"/>
    </contour>
    <contour>
      <point x="562" y="722" type="line"/>
      <point x="991" y="1430" type="line"/>
      <point x="962" y="1430" type="line"/>
      <point x="547" y="745" type="line"/>
    </contour>
  </outline>
</glyph>
<glyph name="a" format="2">
  <advance width="1010"/>
  <unicode hex="0061"/>
  <note>
a
</note>
  <anchor x="477" y="0" name="bottom"/>
  <anchor x="854" y="0" name="ogonek"/>
  <anchor x="477" y="914" name="top"/>
  <outline>
    <contour>
      <point x="469" y="-24" type="curve" smooth="yes"/>
      <point x="660" y="-24"/>
      <point x="793" y="91"/>
      <point x="844" y="271" type="curve"/>
      <point x="834" y="285" type="line"/>
      <point x="824" y="0" type="line"/>
      <point x="881" y="0" type="line"/>
      <point x="881" y="912" type="line"/>
      <point x="824" y="912" type="line"/>
      <point x="824" y="607" type="line"/>
      <point x="844" y="621" type="line"/>
      <point x="792" y="808"/>
      <point x="659" y="938"/>
      <point x="469" y="938" type="curve" smooth="yes"/>
      <point x="223" y="938"/>
      <point x="74" y="722"/>
      <point x="74" y="444" type="curve" smooth="yes"/>
      <point x="74" y="166"/>
      <point x="224" y="-24"/>
    </contour>
    <contour>
      <point x="469" y="4" type="curve" smooth="yes"/>
      <point x="258" y="4"/>
      <point x="134" y="166"/>
      <point x="134" y="454" type="curve" smooth="yes"/>
      <point x="134" y="749"/>
      <point x="266" y="910"/>
      <point x="469" y="910" type="curve" smooth="yes"/>
      <point x="678" y="910"/>
      <point x="820" y="732"/>
      <point x="820" y="444" type="curve" smooth="yes"/>
      <point x="820" y="149"/>
      <point x="670" y="4"/>
    </contour>
  </outline>
</glyph>
<glyph name="d" format="2">
  <advance width="1018"/>
  <unicode hex="0064"/>
  <note>
d
</note>
  <anchor x="472" y="0" name="bottom"/>
  <anchor x="842" y="1298" name="center"/>
  <anchor x="559" y="1514" name="top"/>
  <anchor x="1068" y="1514" name="topright"/>
  <outline>
    <contour>
      <point x="469" y="-35" type="curve" smooth="yes"/>
      <point x="660" y="-35"/>
      <point x="793" y="82"/>
      <point x="844" y="264" type="curve"/>
      <point x="824" y="279" type="line"/>
      <point x="824" y="-10" type="line"/>
      <point x="876" y="-10" type="line"/>
      <point x="876" y="1525" type="line"/>
      <point x="824" y="1525" type="line"/>
      <point x="824" y="605" type="line"/>
      <point x="844" y="619" type="line"/>
      <point x="792" y="809"/>
      <point x="659" y="941"/>
      <point x="469" y="941" type="curve" smooth="yes"/>
      <point x="223" y="941"/>
      <point x="74" y="722"/>
      <point x="74" y="440" type="curve" smooth="yes"/>
      <point x="74" y="158"/>
      <point x="224" y="-35"/>
    </contour>
    <contour>
      <point x="469" y="-6" type="curve" smooth="yes"/>
      <point x="258" y="-6"/>
      <point x="126" y="158"/>
      <point x="126" y="450" type="curve" smooth="yes"/>
      <point x="126" y="749"/>
      <point x="266" y="912"/>
      <point x="469" y="912" type="curve" smooth="yes"/>
      <point x="678" y="912"/>
      <point x="820" y="732"/>
      <point x="820" y="440" type="curve" smooth="yes"/>
      <point x="820" y="141"/>
      <point x="670" y="-6"/>
    </contour>
  </outline>
</glyph>
<glyph name="k" format="2">
  <advance width="858"/>
  <unicode hex="006B"/>
  <note>
k
</note>
  <guideline x="599" y="226" angle="315.2524"/>
  <anchor x="415" y="0" name="bottom"/>
  <anchor x="415" y="1514" name="top"/>
  <outline>
    <contour>
      <point x="142" y="0" type="line"/>
      <point x="194" y="0" type="line"/>
      <point x="194" y="1514" type="line"/>
      <point x="142" y="1514" type="line"/>
    </contour>
    <contour>
      <point x="744" y="0" type="line"/>
      <point x="826" y="0" type="line"/>
      <point x="280" y="542" type="line"/>
      <point x="234" y="506" type="line"/>
    </contour>
    <contour>
      <point x="181" y="424" type="line"/>
      <point x="698" y="912" type="line"/>
      <point x="657" y="912" type="line"/>
      <point x="160" y="447" type="line"/>
    </contour>
  </outline>
</glyph>
<glyph name="l" format="2">
  <advance width="336"/>
  <unicode hex="006C"/>
  <note>
l
</note>
  <anchor x="138" y="0" name="bottom"/>
  <anchor x="168" y="787" name="center"/>
  <anchor x="325" y="789" name="dot"/>
  <anchor x="188" y="1514" name="top"/>
  <anchor x="313" y="1494" name="topright"/>
  <outline>
    <contour>
      <point x="142" y="0" type="line"/>
      <point x="194" y="0" type="line"/>
      <point x="194" y="1514" type="line"/>
      <point x="142" y="1514" type="line"/>
    </contour>
  </outline>
</glyph>
<glyph name="o" format="2">
  <advance width="961"/>
  <unicode hex="006F"/>
  <note>
o
</note>
  <anchor x="480" y="4" name="bottom"/>
  <anchor x="481" y="457" name="center"/>
  <anchor x="606" y="0" name="ogonek"/>
  <anchor x="481" y="914" name="top"/>
  <anchor x="916" y="914" name="topright"/>
  <outline>
    <contour>
      <point x="480" y="-24" type="curve" smooth="yes"/>
      <point x="726" y="-24"/>
      <point x="888" y="166"/>
      <point x="888" y="444" type="curve" smooth="yes"/>
      <point x="888" y="721"/>
      <point x="726" y="938"/>
      <point x="480" y="938" type="curve" smooth="yes"/>
      <point x="234" y="938"/>
      <point x="74" y="721"/>
      <point x="74" y="444" type="curve" smooth="yes"/>
      <point x="74" y="166"/>
      <point x="234" y="-24"/>
    </contour>
    <contour>
      <point x="480" y="4" type="curve" smooth="yes"/>
      <point x="281" y="4"/>
      <point x="137" y="154"/>
      <point x="137" y="452" type="curve" smooth="yes"/>
      <point x="137" y="737"/>
      <point x="280" y="910"/>
      <point x="480" y="910" type="curve" smooth="yes"/>
      <point x="680" y="910"/>
      <point x="822" y="729"/>
      <point x="822" y="444" type="curve" smooth="yes"/>
      <point x="822" y="146"/>
      <point x="679" y="4"/>
    </contour>
  </outline>
</glyph>
<glyph name="u" format="2">
  <advance width="967"/>
  <unicode hex="0075"/>
  <note>
u
</note>
  <anchor x="484" y="0" name="bottom"/>
  <anchor x="812" y="0" name="ogonek"/>
  <anchor x="484" y="914" name="top"/>
  <anchor x="1032" y="914" name="topright"/>
  <outline>
    <contour>
      <point x="423" y="-26" type="curve" smooth="yes"/>
      <point x="690" y="-26"/>
      <point x="776" y="164"/>
      <point x="795" y="344" type="curve"/>
      <point x="786" y="316" type="line"/>
      <point x="786" y="0" type="line"/>
      <point x="838" y="0" type="line"/>
      <point x="838" y="912" type="line"/>
      <point x="786" y="912" type="line"/>
      <point x="786" y="490" type="line" smooth="yes"/>
      <point x="786" y="205"/>
      <point x="689" y="2"/>
      <point x="433" y="2" type="curve" smooth="yes"/>
      <point x="249" y="2"/>
      <point x="165" y="106"/>
      <point x="165" y="313" type="curve" smooth="yes"/>
      <point x="165" y="912" type="line"/>
      <point x="113" y="912" type="line"/>
      <point x="113" y="296" type="line" smooth="yes"/>
      <point x="113" y="114"/>
      <point x="194" y="-26"/>
    </contour>
  </outline>
</glyph>
<glyph name="y" format="2">
  <advance width="901"/>
  <unicode hex="0079"/>
  <note>
y
</note>
  <guideline x="685" y="419" angle="69.7563"/>
  <anchor x="641" y="0" name="bottom"/>
  <anchor x="451" y="914" name="top"/>
  <outline>
    <contour>
      <point x="242" y="-548" type="curve" smooth="yes"/>
      <point x="311" y="-548"/>
      <point x="343" y="-490"/>
      <point x="387" y="-375" type="curve"/>
      <point x="599" y="214"/>
      <point x="561" y="110"/>
      <point x="603" y="223" type="curve"/>
      <point x="857" y="912" type="line"/>
      <point x="844" y="912" type="line"/>
      <point x="501" y="-18" type="line"/>
      <point x="517" y="0" type="line"/>
      <point x="109" y="912" type="line"/>
      <point x="41" y="912" type="line"/>
      <point x="488" y="-81" type="line"/>
      <point x="490" y="-48" type="line"/>
      <point x="383" y="-347" type="line" smooth="yes"/>
      <point x="347" y="-447"/>
      <point x="318" y="-528"/>
      <point x="250" y="-528" type="curve" smooth="yes"/>
      <point x="213" y="-528"/>
      <point x="179" y="-504"/>
      <point x="175" y="-452" type="curve"/>
      <point x="130" y="-452" type="line"/>
      <point x="139" y="-516"/>
      <point x="192" y="-548"/>
    </contour>
  </outline>
</glyph>
<glyph name="section" format="2">
  <advance width="996"/>
  <unicode hex="00A7"/>
  <note>
section
</note>
  <outline>
    <contour>
      <point x="463" y="-400" type="curve" smooth="yes"/>
      <point x="638" y="-400"/>
      <point x="807" y="-310"/>
      <point x="804" y="-125" type="curve" smooth="yes"/>
      <point x="801" y="62"/>
      <point x="626" y="132"/>
      <point x="473" y="185" type="curve"/>
      <point x="471" y="172" type="line"/>
      <point x="678" y="154"/>
      <point x="866" y="304"/>
      <point x="862" y="518" type="curve" smooth="yes"/>
      <point x="858" y="727"/>
      <point x="711" y="792"/>
      <point x="548" y="855" type="curve" smooth="yes"/>
      <point x="396" y="914"/>
      <point x="267" y="974"/>
      <point x="263" y="1146" type="curve" smooth="yes"/>
      <point x="260" y="1313"/>
      <point x="375" y="1392"/>
      <point x="522" y="1392" type="curve" smooth="yes"/>
      <point x="686" y="1392"/>
      <point x="769" y="1292"/>
      <point x="761" y="1160" type="curve"/>
      <point x="811" y="1160" type="line"/>
      <point x="811" y="1178" type="line" smooth="yes"/>
      <point x="811" y="1330"/>
      <point x="717" y="1422"/>
      <point x="531" y="1422" type="curve" smooth="yes"/>
      <point x="350" y="1422"/>
      <point x="195" y="1337"/>
      <point x="198" y="1148" type="curve" smooth="yes"/>
      <point x="201" y="995"/>
      <point x="305" y="892"/>
      <point x="533" y="834" type="curve"/>
      <point x="527" y="847" type="line"/>
      <point x="331" y="873"/>
      <point x="132" y="754"/>
      <point x="136" y="504" type="curve" smooth="yes"/>
      <point x="138" y="365"/>
      <point x="240" y="233"/>
      <point x="462" y="165" type="curve" smooth="yes"/>
      <point x="616" y="118"/>
      <point x="737" y="15"/>
      <point x="739" y="-118" type="curve" smooth="yes"/>
      <point x="741" y="-255"/>
      <point x="631" y="-370"/>
      <point x="466" y="-370" type="curve" smooth="yes"/>
      <point x="307" y="-370"/>
      <point x="211" y="-263"/>
      <point x="219" y="-130" type="curve"/>
      <point x="170" y="-130" type="line"/>
      <point x="170" y="-148" type="line" smooth="yes"/>
      <point x="170" y="-288"/>
      <point x="267" y="-400"/>
    </contour>
    <contour>
      <point x="504" y="188" type="curve" smooth="yes"/>
      <point x="339" y="188"/>
      <point x="204" y="356"/>
      <point x="201" y="518" type="curve" smooth="yes"/>
      <point x="198" y="678"/>
      <point x="327" y="836"/>
      <point x="494" y="836" type="curve" smooth="yes"/>
      <point x="661" y="836"/>
      <point x="794" y="687"/>
      <point x="797" y="528" type="curve" smooth="yes"/>
      <point x="800" y="367"/>
      <point x="669" y="188"/>
    </contour>
  </outline>
</glyph>
<glyph name="copyright" format="2">
  <advance width="1709"/>
  <unicode hex="00A9"/>
  <note>
copyright
</note>
  <outline>
    <contour>
      <point x="853" y="-10" type="curve" smooth="yes"/>
      <point x="1041" y="-10"/>
      <point x="1223" y="66"/>
      <point x="1365" y="204" type="curve" smooth="yes"/>
      <point x="1500" y="336"/>
      <point x="1571" y="515"/>
      <point x="1571" y="708" type="curve" smooth="yes"/>
      <point x="1571" y="904"/>
      <point x="1497" y="1084"/>
      <point x="1365" y="1216" type="curve" smooth="yes"/>
      <point x="1229" y="1352"/>
      <point x="1049" y="1426"/>
      <point x="853" y="1426" type="curve" smooth="yes"/>
      <point x="658" y="1426"/>
      <point x="483" y="1353"/>
      <point x="351" y="1218" type="curve" smooth="yes"/>
      <point x="214" y="1078"/>
      <point x="137" y="899"/>
      <point x="137" y="708" type="curve" smooth="yes"/>
      <point x="137" y="515"/>
      <point x="212" y="338"/>
      <point x="349" y="202" type="curve" smooth="yes"/>
      <point x="492" y="60"/>
      <point x="667" y="-10"/>
    </contour>
    <contour>
      <point x="851" y="268" type="curve" smooth="yes"/>
      <point x="1038" y="268"/>
      <point x="1153" y="377"/>
      <point x="1187" y="523" type="curve"/>
      <point x="1140" y="523" type="line"/>
      <point x="1096" y="379"/>
      <point x="998" y="294"/>
      <point x="860" y="294" type="curve" smooth="yes"/>
      <point x="677" y="294"/>
      <point x="536" y="443"/>
      <point x="536" y="705" type="curve" smooth="yes"/>
      <point x="536" y="963"/>
      <point x="672" y="1126"/>
      <point x="860" y="1126" type="curve" smooth="yes"/>
      <point x="988" y="1126"/>
      <point x="1084" y="1050"/>
      <point x="1128" y="919" type="curve"/>
      <point x="1177" y="919" type="line"/>
      <point x="1143" y="1051"/>
      <point x="1038" y="1150"/>
      <point x="861" y="1150" type="curve" smooth="yes"/>
      <point x="626" y="1150"/>
      <point x="475" y="976"/>
      <point x="475" y="704" type="curve" smooth="yes"/>
      <point x="475" y="440"/>
      <point x="616" y="268"/>
    </contour>
    <contour>
      <point x="853" y="46" type="curve" smooth="yes"/>
      <point x="680" y="46"/>
      <point x="513" y="115"/>
      <point x="387" y="242" type="curve" smooth="yes"/>
      <point x="260" y="370"/>
      <point x="191" y="537"/>
      <point x="191" y="708" type="curve" smooth="yes"/>
      <point x="191" y="884"/>
      <point x="261" y="1050"/>
      <point x="389" y="1180" type="curve" smooth="yes"/>
      <point x="511" y="1304"/>
      <point x="672" y="1372"/>
      <point x="853" y="1372" type="curve" smooth="yes"/>
      <point x="1033" y="1372"/>
      <point x="1199" y="1304"/>
      <point x="1325" y="1178" type="curve" smooth="yes"/>
      <point x="1449" y="1054"/>
      <point x="1519" y="884"/>
      <point x="1519" y="708" type="curve" smooth="yes"/>
      <point x="1519" y="523"/>
      <point x="1447" y="361"/>
      <point x="1327" y="244" type="curve" smooth="yes"/>
      <point x="1202" y="122"/>
      <point x="1033" y="46"/>
    </contour>
  </outline>
</glyph>
<glyph name="registered" format="2">
  <advance width="1709"/>
  <unicode hex="00AE"/>
  <note>
registered
</note>
  <outline>
    <contour>
      <point x="853" y="-10" type="curve" smooth="yes"/>
      <point x="1041" y="-10"/>
      <point x="1223" y="66"/>
      <point x="1365" y="204" type="curve" smooth="yes"/>
      <point x="1500" y="336"/>
      <point x="1571" y="515"/>
      <point x="1571" y="708" type="curve" smooth="yes"/>
      <point x="1571" y="904"/>
      <point x="1497" y="1084"/>
      <point x="1365" y="1216" type="curve" smooth="yes"/>
      <point x="1229" y="1352"/>
      <point x="1049" y="1426"/>
      <point x="853" y="1426" type="curve" smooth="yes"/>
      <point x="658" y="1426"/>
      <point x="483" y="1353"/>
      <point x="351" y="1218" type="curve" smooth="yes"/>
      <point x="214" y="1078"/>
      <point x="137" y="899"/>
      <point x="137" y="708" type="curve" smooth="yes"/>
      <point x="137" y="515"/>
      <point x="212" y="338"/>
      <point x="349" y="202" type="curve" smooth="yes"/>
      <point x="492" y="60"/>
      <point x="667" y="-10"/>
    </contour>
    <contour>
      <point x="853" y="46" type="curve" smooth="yes"/>
      <point x="680" y="46"/>
      <point x="513" y="115"/>
      <point x="387" y="242" type="curve" smooth="yes"/>
      <point x="260" y="370"/>
      <point x="191" y="537"/>
      <point x="191" y="708" type="curve" smooth="yes"/>
      <point x="191" y="884"/>
      <point x="261" y="1050"/>
      <point x="389" y="1180" type="curve" smooth="yes"/>
      <point x="511" y="1304"/>
      <point x="672" y="1372"/>
      <point x="853" y="1372" type="curve" smooth="yes"/>
      <point x="1033" y="1372"/>
      <point x="1199" y="1304"/>
      <point x="1325" y="1178" type="curve" smooth="yes"/>
      <point x="1449" y="1054"/>
      <point x="1519" y="884"/>
      <point x="1519" y="708" type="curve" smooth="yes"/>
      <point x="1519" y="523"/>
      <point x="1447" y="361"/>
      <point x="1327" y="244" type="curve" smooth="yes"/>
      <point x="1202" y="122"/>
      <point x="1033" y="46"/>
    </contour>
    <contour>
      <point x="609" y="310" type="line"/>
      <point x="644" y="310" type="line"/>
      <point x="644" y="681" type="line"/>
      <point x="890" y="681" type="line"/>
      <point x="1093" y="310" type="line"/>
      <point x="1127" y="310" type="line"/>
      <point x="919" y="686" type="line"/>
      <point x="1053" y="701"/>
      <point x="1122" y="773"/>
      <point x="1122" y="904" type="curve" smooth="yes"/>
      <point x="1122" y="1056"/>
      <point x="1045" y="1130"/>
      <point x="813" y="1130" type="curve" smooth="yes"/>
      <point x="609" y="1130" type="line"/>
    </contour>
    <contour>
      <point x="644" y="711" type="line"/>
      <point x="644" y="1100" type="line"/>
      <point x="855" y="1100" type="line" smooth="yes"/>
      <point x="1017" y="1100"/>
      <point x="1086" y="1041"/>
      <point x="1086" y="903" type="curve" smooth="yes"/>
      <point x="1086" y="769"/>
      <point x="1018" y="711"/>
      <point x="859" y="711" type="curve" smooth="yes"/>
    </contour>
  </outline>
</glyph>
<glyph name="Thorn" format="2">
  <advance width="967"/>
  <unicode hex="00DE"/>
  <note>
Thorn
</note>
  <anchor x="483" y="0" name="bottom"/>
  <anchor x="483" y="1430" name="top"/>
  <outline>
    <contour>
      <point x="205" y="337" type="line"/>
      <point x="430" y="337" type="line" smooth="yes"/>
      <point x="563" y="337"/>
      <point x="661" y="362"/>
      <point x="731" y="406" type="curve" smooth="yes"/>
      <point x="836" y="472"/>
      <point x="876" y="585"/>
      <point x="876" y="728" type="curve" smooth="yes"/>
      <point x="876" y="865"/>
      <point x="838" y="965"/>
      <point x="760" y="1030" type="curve" smooth="yes"/>
      <point x="687" y="1091"/>
      <point x="577" y="1120"/>
      <point x="430" y="1120" type="curve" smooth="yes"/>
      <point x="214" y="1120" type="line"/>
      <point x="214" y="1094" type="line"/>
      <point x="392" y="1094" type="line" smooth="yes"/>
      <point x="702" y="1094"/>
      <point x="811" y="982"/>
      <point x="811" y="728" type="curve" smooth="yes"/>
      <point x="811" y="471"/>
      <point x="700" y="363"/>
      <point x="392" y="363" type="curve" smooth="yes"/>
      <point x="205" y="363" type="line"/>
    </contour>
    <contour>
      <point x="175" y="0" type="line"/>
      <point x="235" y="0" type="line"/>
      <point x="235" y="1430" type="line"/>
      <point x="175" y="1430" type="line"/>
    </contour>
  </outline>
</glyph>
<glyph name="eth" format="2">
  <advance width="992"/>
  <unicode hex="00F0"/>
  <note>
eth
</note>
  <outline>
    <contour>
      <point x="485" y="-24" type="curve" smooth="yes"/>
      <point x="593" y="-24"/>
      <point x="681" y="9"/>
      <point x="749" y="68" type="curve" smooth="yes"/>
      <point x="811" y="121"/>
      <point x="899" y="208"/>
      <point x="898" y="444" type="curve" smooth="yes"/>
      <point x="897" y="591"/>
      <point x="891" y="772"/>
      <point x="818" y="941" type="curve" smooth="yes"/>
      <point x="713" y="1186"/>
      <point x="449" y="1428"/>
      <point x="156" y="1491" type="curve"/>
      <point x="145" y="1475" type="line"/>
      <point x="523" y="1380"/>
      <point x="830" y="1054"/>
      <point x="844" y="681" type="curve"/>
      <point x="855" y="680" type="line"/>
      <point x="791" y="834"/>
      <point x="662" y="938"/>
      <point x="485" y="938" type="curve" smooth="yes"/>
      <point x="370" y="938"/>
      <point x="275" y="893"/>
      <point x="206" y="821" type="curve" smooth="yes"/>
      <point x="120" y="731"/>
      <point x="74" y="596"/>
      <point x="74" y="444" type="curve" smooth="yes"/>
      <point x="74" y="294"/>
      <point x="120" y="170"/>
      <point x="200" y="88" type="curve" smooth="yes"/>
      <point x="270" y="16"/>
      <point x="367" y="-24"/>
    </contour>
    <contour>
      <point x="489" y="4" type="curve" smooth="yes"/>
      <point x="282" y="4"/>
      <point x="135" y="169"/>
      <point x="135" y="454" type="curve" smooth="yes"/>
      <point x="135" y="746"/>
      <point x="292" y="910"/>
      <point x="489" y="910" type="curve" smooth="yes"/>
      <point x="694" y="910"/>
      <point x="841" y="729"/>
      <point x="841" y="444" type="curve" smooth="yes"/>
      <point x="841" y="152"/>
      <point x="685" y="4"/>
    </contour>
    <contour>
      <point x="240" y="1091" type="line"/>
      <point x="270" y="1091" type="line"/>
      <point x="732" y="1539" type="line"/>
      <point x="702" y="1539" type="line"/>
    </contour>
  </outline>
</glyph>
<glyph name="divide" format="2">
  <advance width="1000"/>
  <unicode hex="00F7"/>
  <note>
divide
</note>
  <outline>
    <contour>
      <point x="118" y="653" type="line"/>
      <point x="894" y="653" type="line"/>
      <point x="894" y="683" type="line"/>
      <point x="118" y="683" type="line"/>
    </contour>
    <contour>
      <point x="506" y="356" type="curve" smooth="yes"/>
      <point x="538" y="356"/>
      <point x="562" y="380"/>
      <point x="562" y="413" type="curve" smooth="yes"/>
      <point x="562" y="446"/>
      <point x="537" y="468"/>
      <point x="506" y="468" type="curve" smooth="yes"/>
      <point x="475" y="468"/>
      <point x="450" y="446"/>
      <point x="450" y="413" type="curve" smooth="yes"/>
      <point x="450" y="380"/>
      <point x="474" y="356"/>
    </contour>
    <contour>
      <point x="506" y="868" type="curve" smooth="yes"/>
      <point x="538" y="868"/>
      <point x="562" y="892"/>
      <point x="562" y="925" type="curve" smooth="yes"/>
      <point x="562" y="958"/>
      <point x="537" y="980"/>
      <point x="506" y="980" type="curve" smooth="yes"/>
      <point x="475" y="980"/>
      <point x="450" y="958"/>
      <point x="450" y="925" type="curve" smooth="yes"/>
      <point x="450" y="892"/>
      <point x="474" y="868"/>
    </contour>
  </outline>
</glyph>
<glyph name="kgreenlandic" format="2">
  <advance width="845"/>
  <unicode hex="0138"/>
  <anchor x="422" y="0" name="bottom"/>
  <anchor x="422" y="914" name="top"/>
  <outline>
    <contour>
      <point x="129" y="0" type="line"/>
      <point x="181" y="0" type="line"/>
      <point x="181" y="910" type="line"/>
      <point x="129" y="910" type="line"/>
    </contour>
    <contour>
      <point x="731" y="0" type="line"/>
      <point x="813" y="0" type="line"/>
      <point x="267" y="542" type="line"/>
      <point x="221" y="506" type="line"/>
    </contour>
    <contour>
      <point x="168" y="424" type="line"/>
      <point x="685" y="910" type="line"/>
      <point x="644" y="910" type="line"/>
      <point x="147" y="447" type="line"/>
    </contour>
  </outline>
</glyph>
<glyph name="Eng" format="2">
  <advance width="1459"/>
  <unicode hex="014A"/>
  <outline>
    <contour>
      <point x="1061" y="-353" type="curve" smooth="yes"/>
      <point x="1190" y="-353"/>
      <point x="1276" y="-245"/>
      <point x="1276" y="-100" type="curve" smooth="yes"/>
      <point x="1276" y="1430" type="line"/>
      <point x="1250" y="1430" type="line"/>
      <point x="1250" y="23" type="line"/>
      <point x="1266" y="28" type="line"/>
      <point x="258" y="1430" type="line"/>
      <point x="174" y="1430" type="line"/>
      <point x="174" y="0" type="line"/>
      <point x="200" y="0" type="line"/>
      <point x="200" y="1413" type="line"/>
      <point x="184" y="1410" type="line"/>
      <point x="1203" y="0" type="line" smooth="yes"/>
      <point x="1230" y="-38"/>
      <point x="1240" y="-52"/>
      <point x="1240" y="-106" type="curve" smooth="yes"/>
      <point x="1240" y="-285"/>
      <point x="1110" y="-318"/>
      <point x="1062" y="-318" type="curve" smooth="yes"/>
      <point x="1003" y="-318"/>
      <point x="932" y="-267"/>
      <point x="886" y="-193" type="curve"/>
      <point x="886" y="-257" type="line"/>
      <point x="939" y="-330"/>
      <point x="1001" y="-353"/>
    </contour>
  </outline>
</glyph>
<glyph name="acutecomb" format="2">
  <unicode hex="0301"/>
  <note>
acute
</note>
  <anchor x="164" y="914" name="_top"/>
  <anchor x="164" y="1276" name="top"/>
  <outline>
    <contour>
      <point x="73" y="1063" type="curve"/>
      <point x="89" y="1063" type="line"/>
      <point x="169" y="1157"/>
      <point x="205" y="1207"/>
      <point x="255" y="1276" type="curve"/>
      <point x="199" y="1276" type="line"/>
      <point x="157" y="1219"/>
      <point x="99" y="1114"/>
    </contour>
  </outline>
</glyph>
<glyph name="circumflexcomb" format="2">
  <unicode hex="0302"/>
  <note>
circumflex
</note>
  <anchor x="221" y="914" name="_top"/>
  <anchor x="221" y="1314" name="top"/>
  <outline>
    <contour>
      <point x="50" y="1072" type="line"/>
      <point x="72" y="1072" type="line"/>
      <point x="215" y="1283" type="line"/>
      <point x="369" y="1072" type="line"/>
      <point x="392" y="1072" type="line"/>
      <point x="245" y="1314" type="line"/>
      <point x="195" y="1314" type="line"/>
    </contour>
  </outline>
</glyph>
<glyph name="hookabovecomb" format="2">
  <unicode hex="0309"/>
  <anchor x="256" y="914" name="_top"/>
  <anchor x="256" y="1348" name="top"/>
  <outline>
    <contour>
      <point x="210" y="1115" type="line"/>
      <point x="293" y="1123"/>
      <point x="379" y="1162"/>
      <point x="379" y="1241" type="curve" smooth="yes"/>
      <point x="379" y="1305"/>
      <point x="322" y="1348"/>
      <point x="243" y="1348" type="curve" smooth="yes"/>
      <point x="196" y="1348"/>
      <point x="162" y="1333"/>
      <point x="133" y="1299" type="curve"/>
      <point x="151" y="1288" type="line"/>
      <point x="177" y="1314"/>
      <point x="204" y="1327"/>
      <point x="243" y="1327" type="curve" smooth="yes"/>
      <point x="301" y="1327"/>
      <point x="335" y="1298"/>
      <point x="335" y="1241" type="curve" smooth="yes"/>
      <point x="335" y="1179"/>
      <point x="296" y="1152"/>
      <point x="210" y="1137" type="curve"/>
    </contour>
    <contour>
      <point x="210" y="1047" type="line"/>
      <point x="242" y="1047" type="line"/>
      <point x="242" y="1127" type="line"/>
      <point x="210" y="1127" type="line"/>
    </contour>
  </outline>
</glyph>
<glyph name="franc" format="2">
  <advance width="1401"/>
  <unicode hex="20A3"/>
  <note>
franc
</note>
  <outline>
    <contour>
      <point x="228" y="0" type="line"/>
      <point x="288" y="0" type="line"/>
      <point x="288" y="738" type="line"/>
      <point x="256" y="715" type="line"/>
      <point x="772" y="715" type="line"/>
      <point x="772" y="741" type="line"/>
      <point x="263" y="741" type="line"/>
      <point x="288" y="727" type="line"/>
      <point x="288" y="1420" type="line"/>
      <point x="244" y="1404" type="line"/>
      <point x="772" y="1404" type="line"/>
      <point x="772" y="1430" type="line"/>
      <point x="228" y="1430" type="line"/>
    </contour>
    <contour>
      <point x="720" y="0" type="line"/>
      <point x="772" y="0" type="line"/>
      <point x="772" y="391" type="line" smooth="yes"/>
      <point x="772" y="603"/>
      <point x="883" y="739"/>
      <point x="1041" y="739" type="curve" smooth="yes"/>
      <point x="1139" y="739"/>
      <point x="1227" y="686"/>
      <point x="1227" y="602" type="curve" smooth="yes"/>
      <point x="1227" y="565"/>
      <point x="1210" y="524"/>
      <point x="1184" y="512" type="curve"/>
      <point x="1228" y="494" type="line"/>
      <point x="1253" y="515"/>
      <point x="1273" y="554"/>
      <point x="1273" y="601" type="curve" smooth="yes"/>
      <point x="1273" y="711"/>
      <point x="1165" y="767"/>
      <point x="1055" y="767" type="curve" smooth="yes"/>
      <point x="900" y="767"/>
      <point x="790" y="655"/>
      <point x="764" y="485" type="curve"/>
      <point x="772" y="474" type="line"/>
      <point x="772" y="741" type="line"/>
      <point x="720" y="741" type="line"/>
    </contour>
  </outline>
</glyph>
<glyph name="lira" format="2">
  <advance width="1150"/>
  <unicode hex="20A4"/>
  <outline>
    <contour>
      <point x="164" y="0" type="line"/>
      <point x="1018" y="0" type="line"/>
      <point x="1018" y="37" type="line"/>
      <point x="164" y="37" type="line"/>
    </contour>
    <contour>
      <point x="164" y="717" type="line"/>
      <point x="848" y="717" type="line"/>
      <point x="848" y="743" type="line"/>
      <point x="164" y="743" type="line"/>
    </contour>
    <contour>
      <point x="164" y="37" type="curve"/>
      <point x="190" y="33" type="line"/>
      <point x="358" y="179"/>
      <point x="402" y="460"/>
      <point x="423" y="628" type="curve" smooth="yes"/>
      <point x="457" y="899"/>
      <point x="263" y="918"/>
      <point x="263" y="1170" type="curve" smooth="yes"/>
      <point x="263" y="1370"/>
      <point x="417" y="1438"/>
      <point x="569" y="1438" type="curve" smooth="yes"/>
      <point x="783" y="1438"/>
      <point x="929" y="1303"/>
      <point x="935" y="1128" type="curve"/>
      <point x="982" y="1128" type="line"/>
      <point x="957" y="1336"/>
      <point x="804" y="1464"/>
      <point x="576" y="1464" type="curve" smooth="yes"/>
      <point x="349" y="1464"/>
      <point x="201" y="1344"/>
      <point x="201" y="1152" type="curve" smooth="yes"/>
      <point x="201" y="924"/>
      <point x="412" y="875"/>
      <point x="374" y="611" type="curve" smooth="yes"/>
      <point x="362" y="528"/>
      <point x="333" y="196"/>
    </contour>
    <contour>
      <point x="164" y="517" type="line"/>
      <point x="848" y="517" type="line"/>
      <point x="848" y="543" type="line"/>
      <point x="164" y="543" type="line"/>
    </contour>
  </outline>
</glyph>
<glyph name="rupeeIndian" format="2">
  <advance width="1206"/>
  <unicode hex="20B9"/>
  <outline>
    <contour>
      <point x="416" y="687" type="line"/>
      <point x="463" y="687"/>
      <point x="550" y="678"/>
      <point x="604" y="645" type="curve" smooth="yes"/>
      <point x="685" y="594"/>
      <point x="709" y="568"/>
      <point x="772" y="251" type="curve" smooth="yes"/>
      <point x="772" y="249"/>
      <point x="815" y="34"/>
      <point x="823" y="0" type="curve"/>
      <point x="891" y="0" type="line"/>
      <point x="872" y="83"/>
      <point x="846" y="197"/>
      <point x="822" y="321" type="curve" smooth="yes"/>
      <point x="794" y="463"/>
      <point x="770" y="570"/>
      <point x="706" y="638" type="curve" smooth="yes"/>
      <point x="657" y="690"/>
      <point x="606" y="696"/>
      <point x="582" y="703" type="curve"/>
    </contour>
    <contour>
      <point x="146" y="713" type="line"/>
      <point x="146" y="687" type="line"/>
      <point x="526" y="687" type="line"/>
      <point x="541" y="687" type="line"/>
      <point x="686" y="728"/>
      <point x="838" y="802"/>
      <point x="838" y="1078" type="curve" smooth="yes"/>
      <point x="838" y="1334"/>
      <point x="622" y="1430"/>
      <point x="392" y="1430" type="curve" smooth="yes"/>
      <point x="149" y="1430" type="line"/>
      <point x="164" y="1404" type="line"/>
      <point x="354" y="1404" type="line" smooth="yes"/>
      <point x="604" y="1404"/>
      <point x="773" y="1327"/>
      <point x="773" y="1078" type="curve" smooth="yes"/>
      <point x="773" y="816"/>
      <point x="612" y="713"/>
      <point x="394" y="713" type="curve" smooth="yes"/>
    </contour>
    <contour>
      <point x="146" y="1404" type="line"/>
      <point x="1072" y="1404" type="line"/>
      <point x="1072" y="1430" type="line"/>
      <point x="146" y="1430" type="line"/>
    </contour>
    <contour>
      <point x="146" y="1065" type="line"/>
      <point x="1072" y="1065" type="line"/>
      <point x="1072" y="1091" type="line"/>
      <point x="146" y="1091" type="line"/>
    </contour>
  </outline>
</glyph>
<glyph name="liraTurkish" format="2">
  <advance width="1018"/>
  <unicode hex="20BA"/>
  <outline>
    <contour>
      <point x="346" y="0" type="line"/>
      <point x="554" y="0"/>
      <point x="839" y="-32"/>
      <point x="890" y="360" type="curve"/>
      <point x="860" y="360" type="line"/>
      <point x="824" y="3"/>
      <point x="550" y="24"/>
      <point x="378" y="26" type="curve"/>
      <point x="406" y="14" type="line"/>
      <point x="406" y="1430" type="line"/>
      <point x="346" y="1430" type="line"/>
    </contour>
    <contour>
      <point x="153" y="456" type="line"/>
      <point x="617" y="737" type="line"/>
      <point x="595" y="774" type="line"/>
      <point x="131" y="493" type="line"/>
    </contour>
    <contour>
      <point x="153" y="656" type="line"/>
      <point x="617" y="937" type="line"/>
      <point x="595" y="974" type="line"/>
      <point x="131" y="693" type="line"/>
    </contour>
  </outline>
</glyph>
<glyph name="manat" format="2">
  <advance width="1162"/>
  <unicode hex="20BC"/>
  <outline>
    <contour>
      <point x="174" y="0" type="line"/>
      <point x="239" y="0" type="line"/>
      <point x="239" y="444" type="line"/>
      <point x="239" y="739"/>
      <point x="382" y="910"/>
      <point x="582" y="910" type="curve" smooth="yes"/>
      <point x="782" y="910"/>
      <point x="924" y="729"/>
      <point x="924" y="444" type="curve"/>
      <point x="924" y="0" type="line"/>
      <point x="988" y="0" type="line"/>
      <point x="988" y="444" type="line"/>
      <point x="988" y="721"/>
      <point x="826" y="938"/>
      <point x="580" y="938" type="curve" smooth="yes"/>
      <point x="334" y="938"/>
      <point x="174" y="721"/>
      <point x="174" y="444" type="curve"/>
    </contour>
    <contour>
      <point x="561" y="0" type="line"/>
      <point x="601" y="0" type="line"/>
      <point x="601" y="1258" type="line"/>
      <point x="561" y="1258" type="line"/>
    </contour>
  </outline>
</glyph>
<glyph name="integral" format="2">
  <advance width="1066"/>
  <unicode hex="222B"/>
  <note>
integral
</note>
  <outline>
    <contour>
      <point x="225" y="-517" type="curve" smooth="yes"/>
      <point x="388" y="-517"/>
      <point x="409" y="-341"/>
      <point x="444" y="-141" type="curve"/>
      <point x="673" y="1155" type="line"/>
      <point x="721" y="1429"/>
      <point x="756" y="1502"/>
      <point x="842" y="1502" type="curve"/>
      <point x="894" y="1495"/>
      <point x="907" y="1455"/>
      <point x="907" y="1420" type="curve" smooth="yes"/>
      <point x="907" y="1382"/>
      <point x="892" y="1323"/>
      <point x="874" y="1298" type="curve"/>
      <point x="919" y="1298" type="line"/>
      <point x="939" y="1338"/>
      <point x="958" y="1392"/>
      <point x="958" y="1436" type="curve" smooth="yes"/>
      <point x="958" y="1492"/>
      <point x="917" y="1531"/>
      <point x="840" y="1531" type="curve" smooth="yes"/>
      <point x="677" y="1531"/>
      <point x="656" y="1355"/>
      <point x="621" y="1155" type="curve"/>
      <point x="392" y="-141" type="line"/>
      <point x="344" y="-415"/>
      <point x="309" y="-488"/>
      <point x="223" y="-488" type="curve"/>
      <point x="171" y="-481"/>
      <point x="158" y="-441"/>
      <point x="158" y="-406" type="curve" smooth="yes"/>
      <point x="158" y="-369"/>
      <point x="173" y="-309"/>
      <point x="191" y="-284" type="curve"/>
      <point x="146" y="-284" type="line"/>
      <point x="125" y="-325"/>
      <point x="108" y="-375"/>
      <point x="108" y="-419" type="curve" smooth="yes"/>
      <point x="108" y="-477"/>
      <point x="147" y="-517"/>
    </contour>
  </outline>
</glyph>
<glyph name="approxequal" format="2">
  <advance width="1000"/>
  <unicode hex="2248"/>
  <note>
approxequal
</note>
  <outline>
    <contour>
      <point x="705" y="720" type="curve" smooth="yes"/>
      <point x="810" y="720"/>
      <point x="877" y="765"/>
      <point x="942" y="863" type="curve"/>
      <point x="919" y="882" type="line"/>
      <point x="877" y="817"/>
      <point x="784" y="761"/>
      <point x="699" y="761" type="curve" smooth="yes"/>
      <point x="640" y="761"/>
      <point x="604" y="789"/>
      <point x="565" y="819" type="curve" smooth="yes"/>
      <point x="520" y="853"/>
      <point x="471" y="890"/>
      <point x="376" y="890" type="curve" smooth="yes"/>
      <point x="270" y="890"/>
      <point x="200" y="844"/>
      <point x="146" y="746" type="curve"/>
      <point x="171" y="728" type="line"/>
      <point x="213" y="793"/>
      <point x="295" y="847"/>
      <point x="379" y="847" type="curve" smooth="yes"/>
      <point x="447" y="847"/>
      <point x="485" y="811"/>
      <point x="532" y="778" type="curve" smooth="yes"/>
      <point x="573" y="748"/>
      <point x="622" y="720"/>
    </contour>
    <contour>
      <point x="705" y="496" type="curve" smooth="yes"/>
      <point x="810" y="496"/>
      <point x="877" y="541"/>
      <point x="942" y="639" type="curve"/>
      <point x="919" y="658" type="line"/>
      <point x="877" y="593"/>
      <point x="784" y="537"/>
      <point x="699" y="537" type="curve" smooth="yes"/>
      <point x="636" y="537"/>
      <point x="600" y="568"/>
      <point x="558" y="600" type="curve" smooth="yes"/>
      <point x="515" y="633"/>
      <point x="466" y="666"/>
      <point x="376" y="666" type="curve" smooth="yes"/>
      <point x="270" y="666"/>
      <point x="200" y="620"/>
      <point x="146" y="522" type="curve"/>
      <point x="171" y="504" type="line"/>
      <point x="213" y="569"/>
      <point x="295" y="623"/>
      <point x="379" y="623" type="curve" smooth="yes"/>
      <point x="446" y="623"/>
      <point x="484" y="588"/>
      <point x="531" y="555" type="curve" smooth="yes"/>
      <point x="573" y="525"/>
      <point x="622" y="496"/>
    </contour>
  </outline>
</glyph>
<glyph name="leftanglebracket-math" format="2">
  <advance width="660"/>
  <unicode hex="27E8"/>
  <outline>
    <contour>
      <point x="571" y="162" type="line"/>
      <point x="577" y="203" type="line"/>
      <point x="155" y="673" type="line"/>
      <point x="577" y="1144" type="line"/>
      <point x="572" y="1183" type="line"/>
      <point x="61" y="673" type="line"/>
    </contour>
  </outline>
</glyph>
<glyph name="apple" format="2">
  <advance width="1370"/>
  <unicode hex="F000"/>
  <note>
apple
</note>
  <outline>
    <contour>
      <point x="465" y="-34" type="curve" smooth="yes"/>
      <point x="466" y="-34"/>
      <point x="537" y="-4"/>
      <point x="540" y="-3" type="curve" smooth="yes"/>
      <point x="590" y="17"/>
      <point x="661" y="30"/>
      <point x="717" y="30" type="curve" smooth="yes"/>
      <point x="771" y="30"/>
      <point x="839" y="17"/>
      <point x="887" y="-3" type="curve" smooth="yes"/>
      <point x="958" y="-32"/>
      <point x="955" y="-34"/>
      <point x="965" y="-34" type="curve" smooth="yes"/>
      <point x="1009" y="-34"/>
      <point x="983" y="-30"/>
      <point x="1069" y="58" type="curve" smooth="yes"/>
      <point x="1083" y="72"/>
      <point x="1156" y="198"/>
      <point x="1253" y="414" type="curve"/>
      <point x="1084" y="497"/>
      <point x="1004" y="579"/>
      <point x="1004" y="724" type="curve" smooth="yes"/>
      <point x="1004" y="859"/>
      <point x="1070" y="924"/>
      <point x="1238" y="1035" type="curve"/>
      <point x="1110" y="1186"/>
      <point x="1095" y="1202"/>
      <point x="983" y="1202" type="curve" smooth="yes"/>
      <point x="964" y="1202"/>
      <point x="958" y="1199"/>
      <point x="923" y="1184" type="curve" smooth="yes"/>
      <point x="853" y="1154"/>
      <point x="786" y="1134"/>
      <point x="715" y="1134" type="curve" smooth="yes"/>
      <point x="646" y="1134"/>
      <point x="558" y="1156"/>
      <point x="504" y="1182" type="curve" smooth="yes"/>
      <point x="469" y="1199"/>
      <point x="473" y="1200"/>
      <point x="443" y="1200" type="curve" smooth="yes"/>
      <point x="266" y="1200"/>
      <point x="138" y="1000"/>
      <point x="138" y="720" type="curve" smooth="yes"/>
      <point x="138" y="506"/>
      <point x="235" y="224"/>
      <point x="356" y="87" type="curve"/>
      <point x="424" y="-3"/>
      <point x="447" y="-34"/>
    </contour>
    <contour>
      <point x="780" y="1194" type="curve"/>
      <point x="727" y="1194" type="line"/>
      <point x="735" y="1194" type="line" smooth="yes"/>
      <point x="801" y="1194"/>
      <point x="902" y="1383"/>
      <point x="902" y="1521" type="curve" smooth="yes"/>
      <point x="902" y="1532"/>
      <point x="902" y="1540"/>
      <point x="900" y="1548" type="curve"/>
      <point x="887" y="1445"/>
      <point x="842" y="1347"/>
      <point x="842" y="1227" type="curve" smooth="yes"/>
      <point x="842" y="1203"/>
      <point x="845" y="1178"/>
      <point x="844" y="1196" type="curve"/>
      <point x="780" y="1194"/>
      <point x="780" y="1194"/>
    </contour>
  </outline>
</glyph>
<glyph name="H.t" format="2">
  <advance width="1500"/>
  <note>
H
</note>
  <anchor x="750" y="0" name="bottom"/>
  <anchor x="750" y="715" name="center"/>
  <anchor x="750" y="1430" name="top"/>
  <anchor x="65" y="1430" name="topleft"/>
  <outline>
    <contour>
      <point x="175" y="0" type="line"/>
      <point x="241" y="0" type="line"/>
      <point x="241" y="725" type="line"/>
      <point x="234" y="719" type="line"/>
      <point x="1266" y="719" type="line"/>
      <point x="1259" y="725" type="line"/>
      <point x="1259" y="0" type="line"/>
      <point x="1325" y="0" type="line"/>
      <point x="1325" y="1430" type="line"/>
      <point x="1259" y="1430" type="line"/>
      <point x="1259" y="739" type="line"/>
      <point x="1266" y="745" type="line"/>
      <point x="234" y="745" type="line"/>
      <point x="241" y="739" type="line"/>
      <point x="241" y="1430" type="line"/>
      <point x="175" y="1430" type="line"/>
    </contour>
  </outline>
</glyph>
<glyph name="currency_horz_stroke_long.case" format="2">
  <advance width="1654"/>
  <anchor x="827" y="0" name="_bottom"/>
  <anchor x="825" y="-318" name="bottom"/>
  <outline>
    <contour>
      <point x="151" y="696" type="line"/>
      <point x="1503" y="696" type="line"/>
      <point x="1503" y="722" type="line"/>
      <point x="151" y="722" type="line"/>
    </contour>
  </outline>
</glyph>
<glyph name="currency_horz_stroke_xlong.case" format="2">
  <advance width="1946"/>
  <anchor x="973" y="0" name="_bottom"/>
  <outline>
    <contour>
      <point x="0" y="786" type="line"/>
      <point x="1946" y="786" type="line"/>
      <point x="1946" y="812" type="line"/>
      <point x="0" y="812" type="line"/>
    </contour>
  </outline>
</glyph>
<glyph name="nine.dnom" format="2">
  <advance width="693"/>
  <note>
nine
</note>
  <outline>
    <contour>
      <point x="177" y="-24" type="line"/>
      <point x="271" y="-1"/>
      <point x="385" y="53"/>
      <point x="458" y="125" type="curve" smooth="yes"/>
      <point x="487" y="154"/>
      <point x="520" y="194"/>
      <point x="550" y="249" type="curve" smooth="yes"/>
      <point x="600" y="341"/>
      <point x="632" y="449"/>
      <point x="632" y="583" type="curve" smooth="yes"/>
      <point x="632" y="817"/>
      <point x="535" y="951"/>
      <point x="357" y="951" type="curve" smooth="yes"/>
      <point x="165" y="951"/>
      <point x="57" y="807"/>
      <point x="57" y="646" type="curve" smooth="yes"/>
      <point x="57" y="478"/>
      <point x="173" y="348"/>
      <point x="337" y="348" type="curve" smooth="yes"/>
      <point x="468" y="348"/>
      <point x="543" y="432"/>
      <point x="574" y="520" type="curve"/>
      <point x="570" y="547" type="line"/>
      <point x="569" y="372"/>
      <point x="483" y="238"/>
      <point x="445" y="186" type="curve" smooth="yes"/>
      <point x="379" y="96"/>
      <point x="296" y="40"/>
      <point x="177" y="4" type="curve"/>
    </contour>
    <contour>
      <point x="336" y="370" type="curve" smooth="yes"/>
      <point x="185" y="370"/>
      <point x="131" y="540"/>
      <point x="131" y="653" type="curve" smooth="yes"/>
      <point x="131" y="780"/>
      <point x="198" y="929"/>
      <point x="345" y="929" type="curve" smooth="yes"/>
      <point x="490" y="929"/>
      <point x="558" y="783"/>
      <point x="558" y="653" type="curve" smooth="yes"/>
      <point x="558" y="515"/>
      <point x="480" y="370"/>
    </contour>
  </outline>
</glyph>
<glyph name="one.tf" format="2">
  <advance width="1100"/>
  <outline>
    <contour>
      <point x="530" y="0" type="line"/>
      <point x="590" y="0" type="line"/>
      <point x="590" y="1430" type="line"/>
      <point x="571" y="1430" type="line"/>
      <point x="312" y="1026" type="line"/>
      <point x="322" y="1018" type="line"/>
      <point x="536" y="1351" type="line"/>
      <point x="530" y="1351" type="line"/>
    </contour>
    <contour>
      <point x="181" y="0" type="line"/>
      <point x="919" y="0" type="line"/>
      <point x="919" y="36" type="line"/>
      <point x="181" y="36" type="line"/>
    </contour>
  </outline>
</glyph>
<glyph name="six.dnom" format="2">
  <advance width="692"/>
  <note>
six
</note>
  <outline>
    <contour>
      <point x="333" y="-23" type="curve" smooth="yes"/>
      <point x="525" y="-25"/>
      <point x="635" y="119"/>
      <point x="635" y="287" type="curve" smooth="yes"/>
      <point x="635" y="452"/>
      <point x="523" y="580"/>
      <point x="355" y="580" type="curve" smooth="yes"/>
      <point x="224" y="580"/>
      <point x="147" y="505"/>
      <point x="114" y="401" type="curve"/>
      <point x="125" y="407" type="line"/>
      <point x="134" y="491"/>
      <point x="151" y="551"/>
      <point x="186" y="626" type="curve" smooth="yes"/>
      <point x="247" y="759"/>
      <point x="353" y="866"/>
      <point x="500" y="916" type="curve"/>
      <point x="500" y="949" type="line"/>
      <point x="345" y="911"/>
      <point x="235" y="829"/>
      <point x="151" y="686" type="curve" smooth="yes"/>
      <point x="98" y="596"/>
      <point x="61" y="493"/>
      <point x="61" y="349" type="curve" smooth="yes"/>
      <point x="61" y="98"/>
      <point x="170" y="-21"/>
    </contour>
    <contour>
      <point x="345" y="-4" type="curve" smooth="yes"/>
      <point x="194" y="-2"/>
      <point x="134" y="146"/>
      <point x="136" y="294" type="curve" smooth="yes"/>
      <point x="137" y="414"/>
      <point x="215" y="560"/>
      <point x="360" y="560" type="curve" smooth="yes"/>
      <point x="509" y="560"/>
      <point x="561" y="389"/>
      <point x="561" y="276" type="curve" smooth="yes"/>
      <point x="561" y="149"/>
      <point x="499" y="-6"/>
    </contour>
  </outline>
</glyph>
<glyph name="slashlongcomb.case" format="2">
  <anchor x="747" y="721.5" name="_center"/>
  <outline>
    <contour>
      <point x="272" y="-38" type="line"/>
      <point x="314" y="-38" type="line"/>
      <point x="1222" y="1481" type="line"/>
      <point x="1180" y="1481" type="line"/>
    </contour>
  </outline>
</glyph>
<glyph name="three.osf" format="2">
  <advance width="882"/>
  <outline>
    <contour>
      <point x="342" y="-320" type="curve" smooth="yes"/>
      <point x="631" y="-320"/>
      <point x="787" y="-54"/>
      <point x="787" y="151" type="curve" smooth="yes"/>
      <point x="787" y="366"/>
      <point x="582" y="465"/>
      <point x="500" y="453" type="curve"/>
      <point x="437" y="427" type="line"/>
      <point x="579" y="450"/>
      <point x="721" y="513"/>
      <point x="721" y="704" type="curve" smooth="yes"/>
      <point x="721" y="876"/>
      <point x="592" y="997"/>
      <point x="410" y="997" type="curve" smooth="yes"/>
      <point x="220" y="997"/>
      <point x="79" y="870"/>
      <point x="70" y="691" type="curve"/>
      <point x="124" y="690" type="line"/>
      <point x="129" y="856"/>
      <point x="245" y="974"/>
      <point x="406" y="974" type="curve" smooth="yes"/>
      <point x="564" y="974"/>
      <point x="675" y="863"/>
      <point x="675" y="706" type="curve" smooth="yes"/>
      <point x="675" y="521"/>
      <point x="563" y="480"/>
      <point x="366" y="437" type="curve" smooth="yes"/>
      <point x="228" y="407" type="line"/>
      <point x="234" y="384" type="line"/>
      <point x="391" y="418"/>
      <point x="418" y="424"/>
      <point x="457" y="424" type="curve" smooth="yes"/>
      <point x="616" y="424"/>
      <point x="726" y="325"/>
      <point x="723" y="144" type="curve" smooth="yes"/>
      <point x="719" y="-109"/>
      <point x="551" y="-292"/>
      <point x="333" y="-292" type="curve" smooth="yes"/>
      <point x="231" y="-292"/>
      <point x="139" y="-252"/>
      <point x="77" y="-202" type="curve"/>
      <point x="60" y="-221" type="line"/>
      <point x="127" y="-281"/>
      <point x="227" y="-320"/>
    </contour>
  </outline>
</glyph>
<glyph name="two.dnom" format="2">
  <advance width="687"/>
  <note>
two
</note>
  <outline>
    <contour>
      <point x="51" y="0" type="line"/>
      <point x="629" y="0" type="line"/>
      <point x="629" y="65" type="line"/>
      <point x="121" y="65" type="line"/>
      <point x="119" y="45" type="line"/>
      <point x="197" y="126"/>
      <point x="363" y="299"/>
      <point x="467" y="418" type="curve" smooth="yes"/>
      <point x="555" y="519"/>
      <point x="621" y="616"/>
      <point x="621" y="731" type="curve" smooth="yes"/>
      <point x="621" y="883"/>
      <point x="508" y="964"/>
      <point x="367" y="964" type="curve" smooth="yes"/>
      <point x="207" y="964"/>
      <point x="89" y="848"/>
      <point x="89" y="681" type="curve" smooth="yes"/>
      <point x="89" y="671"/>
      <point x="89" y="664"/>
      <point x="90" y="658" type="curve"/>
      <point x="157" y="658" type="line"/>
      <point x="157" y="667" type="line" smooth="yes"/>
      <point x="157" y="822"/>
      <point x="232" y="947"/>
      <point x="353" y="947" type="curve" smooth="yes"/>
      <point x="436" y="947"/>
      <point x="545" y="900"/>
      <point x="545" y="726" type="curve" smooth="yes"/>
      <point x="545" y="543"/>
      <point x="425" y="421"/>
      <point x="264" y="240" type="curve" smooth="yes"/>
    </contour>
  </outline>
</glyph>
